PathFileType	4	(X/Y/Z)	s07c0201.trc
DataRate	CameraRate	NumFrames	NumMarkers	Units	OrigDataRate	OrigDataStartFrame	OrigNumFrames
200	200	4	48	mm	200	250	2000
Frame#	Time	racr			lacr			c7			jug			rlel			rdr			llel			ldr			s2			lic			ric			lasi			rasi			rpsi			lpsi			rgt			lgt			rth1			rth2			rth3			rth4			rlfc			rmfc			rsh1			rsh2			rsh3			rsh4			rlmal			rcal			rtoe			rmt5			lth1			lth2			lth4			lth3			llfc			lmfc			lsh1			lsh2			lsh3			lsh4			llmal			lcal			ltoe			lmt5			SBIKE			LBIKE			RBIKE			
		X1	Y1	Z1	X2	Y2	Z2	X3	Y3	Z3	X4	Y4	Z4	X5	Y5	Z5	X6	Y6	Z6	X7	Y7	Z7	X8	Y8	Z8	X9	Y9	Z9	X10	Y10	Z10	X11	Y11	Z11	X12	Y12	Z12	X13	Y13	Z13	X14	Y14	Z14	X15	Y15	Z15	X16	Y16	Z16	X17	Y17	Z17	X18	Y18	Z18	X19	Y19	Z19	X20	Y20	Z20	X21	Y21	Z21	X22	Y22	Z22	X23	Y23	Z23	X24	Y24	Z24	X25	Y25	Z25	X26	Y26	Z26	X27	Y27	Z27	X28	Y28	Z28	X29	Y29	Z29	X30	Y30	Z30	X31	Y31	Z31	X32	Y32	Z32	X33	Y33	Z33	X34	Y34	Z34	X35	Y35	Z35	X36	Y36	Z36	X37	Y37	Z37	X38	Y38	Z38	X39	Y39	Z39	X40	Y40	Z40	X41	Y41	Z41	X42	Y42	Z42	X43	Y43	Z43	X44	Y44	Z44	X45	Y45	Z45	X46	Y46	Z46	X47	Y47	Z47	X48	Y48	Z48	
250	1.2500	406.078545	1486.724458	-81.550297	402.971588	1467.405975	-368.513656	375.801975	1523.651607	-230.258391	355.357640	1379.504662	-227.234451	509.527189	1168.528412	12.901226	690.428672	935.218374	-58.326888	511.432054	1163.713941	-471.896106	685.339663	924.854444	-441.366241	-145.391298	1199.440914	-249.657505	16.436139	1261.134346	-389.517380	17.053110	1253.823052	-93.687914	55.233485	1182.795570	-360.886547	35.112997	1199.335131	-113.992723	-123.893794	1240.099375	-197.501065	-109.683148	1249.604966	-306.791920	-29.444065	1132.896442	-49.028096	-31.934314	1097.550053	-416.494328	108.554690	1086.505137	-42.821494	195.862049	1083.781417	-52.101717	270.663659	1042.683786	-48.111672	204.301990	1115.271373	-70.489100	398.283503	971.467117	-80.652978	397.742607	959.257687	-188.047407	340.999358	839.627323	-63.438329	324.099522	753.948059	-83.840812	269.761107	686.570924	-84.122011	341.895759	751.514785	-120.772331	204.757010	569.944531	-90.132687	132.890715	546.071340	-121.569888	408.181220	453.884484	-127.092099	323.332630	442.290156	-57.302049	28.662506	989.596395	-424.100706	95.715527	932.100930	-425.609413	125.479452	951.988472	-417.399079	124.962655	848.129734	-420.160760	210.088691	692.361615	-387.342870	196.796843	676.006761	-290.670775	131.228905	565.132624	-410.660845	106.488635	485.045460	-390.577375	44.410916	420.247577	-399.304586	110.462341	486.808512	-348.767955	-32.400948	309.234159	-396.117371	-108.575622	285.655732	-362.299973	166.816826	197.369490	-357.429053	83.010259	192.428366	-421.036651	-263.731945	974.530491	-235.697574	-82.853094	79.171154	-434.946401	-82.551978	79.009388	-37.498290	
251	1.2550	406.006411	1486.708781	-81.274199	403.044980	1467.508693	-368.312334	375.845207	1523.651492	-230.025262	355.398260	1379.573199	-227.057685	509.725206	1168.575133	12.922495	690.508137	935.179069	-58.198276	511.572303	1163.801130	-471.562687	685.347176	924.842494	-441.248787	-145.359307	1199.452307	-249.628955	16.491893	1261.153064	-389.464383	17.050194	1253.840939	-93.632495	55.314744	1182.785125	-360.807928	35.117928	1199.367847	-113.980444	-123.855992	1240.102022	-197.480393	-109.619645	1249.604774	-306.762237	-29.380543	1132.901805	-49.028899	-31.828291	1097.555061	-416.457334	108.655201	1086.555605	-42.926217	195.958354	1083.830118	-52.261197	270.761984	1042.820501	-48.283344	204.401198	1115.362584	-70.584424	398.340844	971.594721	-80.869144	397.780755	959.342505	-188.251278	341.061788	839.749363	-63.600353	324.123408	754.054872	-83.975186	269.744059	686.759393	-84.220581	341.871745	751.634880	-120.921403	204.654048	570.164333	-90.131232	132.796554	546.355947	-121.557619	408.044702	453.994811	-127.112934	323.133979	442.579246	-57.201371	28.727777	989.579686	-424.093167	95.733762	932.047744	-425.587435	125.501098	951.925567	-417.354135	124.935172	848.074493	-420.161182	210.016579	692.264255	-387.337595	196.733775	675.895666	-290.665688	131.227563	564.975589	-410.641676	106.519940	484.897101	-390.560299	44.438911	420.038875	-399.328305	110.443183	486.674137	-348.789969	-32.310213	309.012278	-396.134432	-108.455305	285.380522	-362.309426	166.992694	197.251025	-357.437765	83.172805	192.309683	-421.047350	-263.719656	974.539313	-235.700296	-82.837488	79.160732	-434.934912	-82.552119	79.026556	-37.506517	
252	1.2600	405.940041	1486.691452	-80.992414	405.024344	1468.761029	-372.616094	375.862156	1523.679593	-229.753696	355.456594	1379.626533	-226.850766	509.896984	1168.628681	12.930551	690.586656	935.146024	-58.102922	511.734774	1163.885626	-471.205659	685.328753	924.824584	-441.080139	-145.301454	1199.450523	-249.636542	16.581500	1261.159800	-389.425410	17.053817	1253.846730	-93.602621	55.368835	1182.820403	-360.734529	35.123479	1199.361132	-113.931589	-123.818912	1240.098613	-197.455087	-109.552583	1249.609066	-306.748007	-29.343229	1132.931821	-49.005739	-31.750288	1097.556921	-416.429943	108.753701	1086.608920	-42.978167	196.046403	1083.929819	-52.374372	270.820962	1042.938868	-48.470928	204.428961	1115.477259	-70.738362	398.451250	971.744560	-81.101769	397.755999	959.499818	-188.530127	341.149932	839.908336	-63.761763	324.149457	754.252724	-84.081537	269.774325	686.980651	-84.299532	341.889484	751.777123	-121.058958	204.615224	570.367530	-90.136323	132.750687	546.671821	-121.525388	407.922450	454.039715	-127.114666	322.908127	442.736014	-57.131152	28.768829	989.566893	-424.084555	95.756685	932.001716	-425.569784	125.543632	951.877795	-417.309456	124.912242	848.002589	-420.124974	209.940386	692.159116	-387.322930	196.658290	675.789704	-290.666257	131.179845	564.846319	-410.641409	106.540297	484.753828	-390.565719	44.451675	419.906637	-399.337960	110.438345	486.547435	-348.786279	-32.255512	308.793497	-396.140644	-108.380345	285.132417	-362.345757	167.115039	197.187676	-357.425007	83.333521	192.183782	-421.041283	-263.717297	974.536205	-235.693785	-82.854001	79.152625	-434.912474	-82.563019	79.013642	-37.497892	
253	1.2650	405.859915	1486.682091	-80.731688	405.121786	1468.914569	-372.471817	376.056193	1524.076555	-229.742549	355.461493	1379.702326	-226.680824	510.038299	1168.689730	12.944178	690.658366	935.159600	-58.045270	511.851276	1163.992083	-470.837571	685.348298	924.863132	-440.966583	-145.253912	1199.450815	-249.643913	16.648000	1261.150569	-389.384145	17.047513	1253.838962	-93.549244	55.431108	1182.855577	-360.683813	35.158227	1199.380725	-113.913206	-123.790519	1240.099883	-197.437932	-109.490415	1249.606863	-306.711933	-29.277456	1132.952144	-48.987570	-31.691920	1097.556573	-416.403688	108.875343	1086.655600	-43.034364	196.152173	1084.054461	-52.508057	270.926872	1043.077032	-48.631870	204.492499	1115.549822	-70.879761	398.559334	971.983424	-81.391996	397.781436	959.615738	-188.840542	341.259781	840.106645	-63.944622	324.271569	754.479820	-84.229935	269.822898	687.195618	-84.372823	341.947726	751.916708	-121.163079	204.928537	570.820495	-89.846555	132.753460	546.970877	-121.496444	407.820291	454.049633	-127.105566	322.807258	442.830310	-57.122369	28.815346	989.548260	-424.074048	95.786333	931.945456	-425.543956	125.561127	951.797872	-417.263331	124.885054	847.946230	-420.121208	209.840807	692.039405	-387.306656	196.586940	675.713892	-290.672961	131.111387	564.730212	-410.643269	106.506180	484.607336	-390.554200	44.435680	419.781749	-399.351267	110.406587	486.456436	-348.779685	-32.250289	308.629972	-396.181551	-108.362638	284.936735	-362.339991	167.192880	197.179621	-357.438567	83.451695	192.060126	-421.024378	-263.729199	974.542710	-235.684095	-82.847826	79.166373	-434.928549	-82.566988	79.028255	-37.492280	
